Coordinates
version=1
nRows=13
nColumns=40
inDegrees=yes

Units are S.I. units (second, meters, Newtons, ...)
Angles are in degrees.

endheader
time	pelvis_tilt	pelvis_list	pelvis_rotation	pelvis_tx	pelvis_ty	pelvis_tz	hip_flexion_r	hip_adduction_r	hip_rotation_r	knee_angle_r	knee_angle_r_beta	ankle_angle_r	subtalar_angle_r	mtp_angle_r	hip_flexion_l	hip_adduction_l	hip_rotation_l	knee_angle_l	knee_angle_l_beta	ankle_angle_l	subtalar_angle_l	mtp_angle_l	lumbar_extension	lumbar_bending	lumbar_rotation	arm_flex_r	arm_add_r	arm_rot_r	elbow_flex_r	pro_sup_r	wrist_flex_r	wrist_dev_r	arm_flex_l	arm_add_l	arm_rot_l	elbow_flex_l	pro_sup_l	wrist_flex_l	wrist_dev_l
      3.32500000	     -2.02630412	     -4.60866493	      0.10942451	      1.07270279	      0.93616559	      0.41201823	     30.25081708	     -6.07496481	     -6.91394666	     46.43291572	     46.43291572	      0.21435536	    -10.42756763	     -1.53342489	     11.29327812	     -4.81557589	     -7.68226411	     21.34809495	     21.34809495	     14.70968634	     -7.37680151	      0.00384635	    -11.63417143	      5.64928377	      0.42103089	      0.03695542	    -13.66064998	     -3.90879052	     25.28944952	     46.87375997	      0.00000000	      0.00000000	     18.32840976	    -19.58890409	      3.89063458	     59.71354894	     46.13804991	      0.00000000	      0.00000000
      3.33857143	     -2.36725212	     -4.67073993	     -0.23721824	      1.07176532	      0.93604359	      0.41278713	     30.10983197	     -5.59884988	     -7.25874000	     41.85807869	     41.85807869	      0.44905115	     -9.00917599	     -1.22297478	     11.04620922	     -4.91679298	     -7.94968887	     20.89470302	     20.89470302	     14.84993475	     -7.33968469	     -0.08026743	    -11.36673275	      5.62921830	      0.14393479	     -1.20287537	    -13.51116449	     -4.00798688	     25.10410253	     46.87407808	      0.00000000	      0.00000000	     18.87544435	    -20.11732920	      3.56049331	     60.08193309	     46.17902542	      0.00000000	      0.00000000
      3.35214286	     -2.41585795	     -4.57178705	     -0.59004895	      1.07113795	      0.93621689	      0.41351408	     29.39574395	     -5.39448498	     -7.96699993	     36.86529101	     36.86529101	      0.33834826	     -6.56997900	     -2.44311832	     10.34439637	     -4.85330560	     -8.44527094	     20.21576025	     20.21576025	     14.73463877	     -7.09875378	     -0.80460417	    -11.53969692	      5.46346268	      0.29026188	     -3.03872281	    -13.54478113	     -4.80535199	     26.29420555	     46.84393632	      0.00000000	      0.00000000	     19.44779499	    -20.07853462	      2.59818831	     61.02564070	     46.31362270	      0.00000000	      0.00000000
      3.36571429	     -2.70123106	     -4.57372897	     -0.94472574	      1.07034439	      0.93589511	      0.41460436	     28.88794221	     -4.85972190	     -8.39987895	     31.76243962	     31.76243962	      0.32693096	     -4.48741372	     -1.94631036	     10.05475913	     -4.90331608	     -8.69670310	     19.81162104	     19.81162104	     14.85523973	     -7.12445469	     -0.95186044	    -11.34582416	      5.35047754	      0.10849508	     -4.14407472	    -13.44027354	     -4.91016733	     26.17424437	     46.84118969	      0.00000000	      0.00000000	     19.91569121	    -20.41550694	      2.34636050	     61.33366090	     46.34713349	      0.00000000	      0.00000000
      3.37928571	     -2.91990191	     -4.50777453	     -1.30159575	      1.06973317	      0.93555260	      0.41577499	     28.15572806	     -4.39491544	     -9.02235821	     26.52392721	     26.52392721	      0.25994293	     -1.69274573	     -1.43001993	      9.63925891	     -4.87277580	     -8.99158030	     19.33938247	     19.33938247	     14.97431509	     -7.12876646	     -1.16911042	    -11.22749452	      5.23160854	      0.09084294	     -5.22693522	    -13.30242774	     -5.03842370	     26.13072295	     46.83709268	      0.00000000	      0.00000000	     20.40675093	    -20.63292347	      2.03896737	     61.70102894	     46.38801975	      0.00000000	      0.00000000
      3.39285714	     -3.04510300	     -4.37984647	     -1.66306979	      1.06927396	      0.93513142	      0.41710053	     27.25850068	     -3.97935555	     -9.86427582	     21.37473140	     21.37473140	      0.05126734	      1.59840805	     -0.70604637	      9.11297082	     -4.78318480	     -9.30783575	     18.86643579	     18.86643579	     15.04002396	     -7.15363881	     -1.53240586	    -11.23831847	      5.00571856	      0.16375309	     -6.29926480	    -13.16297227	     -5.23420593	     26.26603099	     46.82866962	      0.00000000	      0.00000000	     20.88894146	    -20.75753867	      1.65265211	     62.04547427	     46.43709628	      0.00000000	      0.00000000
      3.40642857	     -3.18397011	     -4.13050344	     -2.03561567	      1.06899078	      0.93444685	      0.41849557	     26.51797633	     -3.73084007	    -11.05516259	     16.82452353	     16.82452353	      0.01460909	      5.47411710	      0.82473075	      8.53419481	     -4.53457617	     -9.58671276	     18.25538797	     18.25538797	     14.83538968	     -7.35340219	     -2.51703930	    -11.20077562	      4.65455644	      0.33451753	     -7.56093607	    -12.97394315	     -5.77956371	     27.04748765	     46.80394081	      0.00000000	      0.00000000	     21.38849007	    -20.64480767	      1.01111843	     62.23980103	     46.52229904	      0.00000000	      0.00000000
      3.42000000	     -3.33934581	     -3.96432768	     -2.41167219	      1.06872762	      0.93366738	      0.42016561	     25.95822093	     -3.29121052	    -11.92759440	     13.00405631	     13.00405631	      0.46660614	      8.45934410	      4.50178477	      8.03958725	     -4.38491474	     -9.73071178	     17.76099875	     17.76099875	     14.50192531	     -7.85555109	     -3.77127286	    -11.12528212	      4.41490206	      0.52895247	     -8.58048878	    -12.73164798	     -6.45459397	     27.69400173	     46.78063603	      0.00000000	      0.00000000	     21.85533332	    -20.56417142	      0.61890264	     62.25538417	     46.60531954	      0.00000000	      0.00000000
      3.43357143	     -3.47350757	     -3.83243127	     -2.77070429	      1.06864355	      0.93285889	      0.42202457	     25.42171241	     -2.75345690	    -12.41405472	      9.72337175	      9.72337175	      0.09339019	     10.24172475	      5.94623110	      7.57552811	     -4.31214150	     -9.95915705	     17.43462372	     17.43462372	     14.70125321	     -7.98670036	     -3.99325358	    -11.02034088	      4.22290081	      0.57048773	     -9.13552361	    -12.53198433	     -6.50994345	     27.55159077	     46.77863980	      0.00000000	      0.00000000	     22.06423224	    -20.63371836	      0.52955323	     62.43085769	     46.62505585	      0.00000000	      0.00000000
      3.44714286	     -3.66724587	     -3.56896102	     -3.14179360	      1.06856859	      0.93185552	      0.42391637	     25.34130154	     -2.47185953	    -12.80924033	      7.78485031	      7.78485031	      0.01388695	     11.49884409	      7.01004407	      7.20339007	     -4.10703834	    -10.25953356	     17.14936218	     17.14936218	     14.89737104	     -8.07770473	     -4.22436587	    -10.85205882	      3.94129448	      0.63795017	     -9.53490819	    -12.28813309	     -6.53242832	     27.46741624	     46.77531561	      0.00000000	      0.00000000	     22.21707040	    -20.70495113	      0.40986932	     62.55193174	     46.64231219	      0.00000000	      0.00000000
      3.46071429	     -3.65190711	     -3.56415987	     -3.51841730	      1.06869545	      0.93152999	      0.42594077	     25.15016284	     -2.09891027	    -13.99446979	      6.89005955	      6.89005955	      1.04743632	     13.27596678	     11.16072093	      6.40166151	     -4.12837816	    -10.43966944	     16.48746408	     16.48746408	     14.57291494	     -8.40864362	     -5.35518821	    -10.91817237	      3.87421990	      0.80977953	     -9.85149526	    -12.13621306	     -6.85507511	     27.54450984	     46.76372768	      0.00000000	      0.00000000	     22.30165430	    -20.46079719	     -0.04659633	     62.57879513	     46.71446663	      0.00000000	      0.00000000
      3.47428571	     -3.76331813	     -3.51489776	     -3.86104394	      1.06891230	      0.93094347	      0.42812604	     25.11361145	     -1.73565045	    -14.10027483	      6.59652576	      6.59652576	      0.97220761	     13.13647106	     11.30992473	      5.88876979	     -4.15583290	    -10.66612348	     16.15497425	     16.15497425	     14.74005188	     -8.48592658	     -5.44957740	    -10.82995542	      3.82920194	      0.87242850	     -9.90907151	    -11.96656850	     -6.87263959	     27.48399920	     46.76016369	      0.00000000	      0.00000000	     22.23917580	    -20.40004701	     -0.11008376	     62.61425722	     46.72712496	      0.00000000	      0.00000000
      3.48785714	     -3.86583247	     -3.58338627	     -4.14439188	      1.06930321	      0.93040623	      0.43034965	     25.06866295	     -1.38948893	    -14.26557692	      7.00030931	      7.00030931	      0.99325702	     12.87446323	     11.14800863	      5.41754607	     -4.32735292	    -10.84386450	     15.95127890	     15.95127890	     14.98412823	     -8.56783752	     -5.49741321	    -10.71600824	      3.94331702	      0.91000207	     -9.85362079	    -11.78968206	     -6.85771415	     27.49485934	     46.75699316	      0.00000000	      0.00000000	     22.05908131	    -20.28354653	     -0.10088901	     62.57808892	     46.72648769	      0.00000000	      0.00000000
